<?xml version="1.0" standalone="no"?>
<!DOCTYPE svg PUBLIC "-//W3C//DTD SVG 20010904//EN"
 "http://www.w3.org/TR/2001/REC-SVG-20010904/DTD/svg10.dtd">
<svg version="1.0" xmlns="http://www.w3.org/2000/svg"
 width="235.000000pt" height="235.000000pt" viewBox="0 0 235.000000 235.000000"
 preserveAspectRatio="xMidYMid meet">
<metadata>
Created by potrace 1.14, written by Peter Selinger 2001-2017
</metadata>
<g transform="translate(0.000000,235.000000) scale(0.100000,-0.100000)"
fill="#000000" stroke="none">
<path d="M1000 2329 c-376 -58 -713 -302 -880 -639 -81 -161 -112 -294 -116
-490 -3 -168 11 -265 59 -405 96 -280 319 -530 592 -668 298 -150 703 -154
1012 -12 406 187 672 589 682 1032 3 137 -11 237 -51 368 -125 413 -481 728
-911 808 -87 16 -301 20 -387 6z"/>
</g>
</svg>
